<?xml version="1.0" encoding="UTF-8"?>
<svg id="Laag_2" data-name="Laag 2" xmlns="http://www.w3.org/2000/svg" viewBox="0 0 741.91 124.63">
  <g id="Laag_1-2" data-name="Laag 1">
    <polygon points="54.71 124.63 140.08 48.04 140.08 124.63 194.67 124.63 280.16 48.57 280.16 124.63 323.33 124.63 323.33 0 269.81 0 183.25 77.02 183.25 0 128.98 0 43.17 76.99 43.17 0 0 0 0 124.63 54.71 124.63"/>
    <rect x="362.87" y=".05" width="9.11" height="53.12"/>
    <polygon points="385.56 .05 395.12 .05 417.89 37.84 417.89 .05 426.69 .05 426.69 53.17 417.74 53.17 394.36 14.32 394.36 53.17 385.56 53.17 385.56 .05"/>
    <path d="M440.27.05h28.15c7.21,0,10.62,3.41,10.62,10.62v31.87c0,7.21-3.41,10.62-10.62,10.62h-28.15V.05ZM467.14,44.82c2.05,0,2.81-.76,2.81-2.81V11.21c0-2.05-.76-2.81-2.81-2.81h-17.76v36.42h17.76Z"/>
    <path d="M490.74,42.55V.05h9.11v41.96c0,2.05.76,2.81,2.88,2.81h15.02c2.05,0,2.81-.76,2.81-2.81V.05h9.11v42.49c0,7.21-3.41,10.62-10.62,10.62h-17.68c-7.21,0-10.62-3.41-10.62-10.62"/>
    <path d="M540.82,42.55v-6.22h8.95v5.84c0,2.12.76,2.88,2.81,2.88h14.42c2.05,0,2.81-.76,2.81-2.88v-6.38c0-2.43-.99-3.19-3.49-3.72l-14.42-3.19c-6.37-1.44-10.93-3.72-10.93-10.93v-7.29c0-7.21,3.41-10.62,10.62-10.62h15.86c7.21,0,10.62,3.41,10.62,10.62v5.69h-8.88v-5.31c0-2.12-.76-2.88-2.88-2.88h-13.36c-2.12,0-2.88.76-2.88,2.88v5.61c0,2.43.99,3.19,3.57,3.79l14.34,3.11c6.45,1.44,10.93,3.72,10.93,10.93v8.04c0,7.21-3.42,10.62-10.62,10.62h-16.85c-7.21,0-10.62-3.41-10.62-10.62"/>
    <polygon points="600.77 8.32 585.67 8.32 585.67 .05 624.9 .05 624.9 8.32 609.88 8.32 609.88 53.17 600.77 53.17 600.77 8.32"/>
    <path d="M673.62,53.17h-9.86l-9.79-19.81h-10.78v19.81h-9.1V.05h27.24c7.21,0,10.62,3.42,10.62,10.62v11.84c0,6.37-2.65,9.79-8.27,10.47l9.94,20.18ZM660.03,25.24c2.05,0,2.81-.76,2.81-2.88v-11.23c0-2.05-.76-2.81-2.81-2.81h-16.85v16.92h16.85Z"/>
    <rect x="684.24" y=".05" width="9.11" height="53.12"/>
    <polygon points="706.93 .05 741.91 .05 741.91 8.4 716.04 8.4 716.04 21.91 737.36 21.91 737.36 30.1 716.04 30.1 716.04 44.82 741.91 44.82 741.91 53.17 706.93 53.17 706.93 .05"/>
    <polygon points="362.87 71.31 373.12 71.31 388.44 105.08 403.77 71.31 414.02 71.31 414.02 124.43 405.06 124.43 405.06 86.86 391.78 117.14 384.8 117.14 371.52 86.86 371.52 124.43 362.87 124.43 362.87 71.31"/>
    <path d="M426.92,113.8v-42.49h9.11v41.97c0,2.05.76,2.81,2.88,2.81h15.02c2.05,0,2.81-.76,2.81-2.81v-41.97h9.11v42.49c0,7.21-3.42,10.62-10.62,10.62h-17.68c-7.21,0-10.62-3.41-10.62-10.62"/>
    <path d="M477,113.8v-6.22h8.95v5.84c0,2.12.76,2.88,2.81,2.88h14.42c2.05,0,2.81-.76,2.81-2.88v-6.37c0-2.43-.99-3.19-3.49-3.72l-14.42-3.19c-6.37-1.44-10.93-3.72-10.93-10.93v-7.29c0-7.21,3.42-10.62,10.62-10.62h15.86c7.21,0,10.62,3.42,10.62,10.62v5.69h-8.88v-5.31c0-2.12-.76-2.88-2.89-2.88h-13.35c-2.12,0-2.88.76-2.88,2.88v5.62c0,2.43.99,3.19,3.57,3.79l14.34,3.11c6.45,1.44,10.93,3.72,10.93,10.93v8.04c0,7.21-3.41,10.62-10.62,10.62h-16.84c-7.21,0-10.62-3.41-10.62-10.62"/>
    <polygon points="527.01 71.31 561.99 71.31 561.99 79.65 536.12 79.65 536.12 93.16 557.44 93.16 557.44 101.36 536.12 101.36 536.12 116.08 561.99 116.08 561.99 124.43 527.01 124.43 527.01 71.31"/>
    <path d="M572.39,113.8v-42.49h9.11v41.97c0,2.05.76,2.81,2.88,2.81h15.02c2.05,0,2.81-.76,2.81-2.81v-41.97h9.11v42.49c0,7.21-3.41,10.62-10.62,10.62h-17.68c-7.21,0-10.62-3.41-10.62-10.62"/>
    <polygon points="624.22 71.31 634.46 71.31 649.79 105.08 665.12 71.31 675.36 71.31 675.36 124.43 666.41 124.43 666.41 86.86 653.13 117.14 646.15 117.14 632.87 86.86 632.87 124.43 624.22 124.43 624.22 71.31"/>
  </g>
</svg>
